<svg xmlns="http://www.w3.org/2000/svg" xmlns:xlink="http://www.w3.org/1999/xlink" version="1.1" width="50" height="50" fill="red" fillOpacity="0.3" style=""><rect id="backgroundrect" width="100%" height="100%" x="0" y="0" fill="none" stroke="none" class="" style=""/><defs><linearGradient id="svg_2" spreadMethod="pad"><stop stop-color="#000000" stop-opacity="1" offset="0"/><stop stop-color="#ffffff" stop-opacity="1" offset="1"/></linearGradient><linearGradient id="svg_3" spreadMethod="pad" x1="0.0" y1="0.0" x2="1" y2="0.0"><stop stop-color="#000000" stop-opacity="1" offset="0"/><stop stop-color="#ffffff" stop-opacity="1" offset="1"/></linearGradient></defs><g class="currentLayer" style=""><title>Layer 1</title><path d="M24.816326588071547,-0.08163262923842272 C38.584898047493034,-0.08163262923842272 49.71428582753174,11.066000068566904 49.71428582753174,24.857142981064317 C49.71428582753174,38.648285893561734 38.584898047493034,49.79591859136707 24.816326588071547,49.79591859136707 C11.04775512865006,49.79591859136707 -0.0816326513886451,38.648285893561734 -0.0816326513886451,24.857142981064317 C-0.0816326513886451,11.066000068566904 11.04775512865006,-0.08163262923842272 24.816326588071547,-0.08163262923842272 M33.75469395503776,12.387755175912949 L24.816326588071547,21.340775620011634 L15.877959221105339,12.387755175912949 L12.367346968341451,15.904122536965636 L21.30571433530766,24.857142981064317 L12.367346968341451,33.810163425163 L15.877959221105339,37.3265307862157 L24.816326588071547,28.373510342117005 L33.75469395503776,37.3265307862157 L37.26530620780164,33.810163425163 L28.326938840835435,24.857142981064317 L37.26530620780164,15.904122536965636 L33.75469395503776,12.387755175912949 z" id="svg_1" class="selected" opacity="1" fill="#e76767" fill-opacity="1" stroke="#000000" stroke-opacity="1" stroke-width="0.2"/><path fill="#e76767" fill-opacity="1" stroke="url(#svg_3)" stroke-opacity="1" stroke-width="1" stroke-dasharray="none" stroke-linejoin="miter" stroke-linecap="butt" stroke-dashoffset="" fill-rule="nonzero" opacity="1" marker-start="" marker-mid="" marker-end="" id="svg_4" d="M61.81632653061223,47.918367346938766 " style="color: rgb(0, 0, 0);" class=""/></g></svg>