<svg width="158" height="330" xmlns="http://www.w3.org/2000/svg">
 <g>
  <title>background</title>
  <rect fill="#fff" id="canvas_background" height="332" width="160" y="-1" x="-1"/>
 </g>
 <g>
  <title>Layer 1</title>
  <g fill-rule="evenodd" fill="none" id="Page-1">
   <g stroke="#7E89A3" id="svg_6">
    <path stroke="null" fill="#FDFDFD" stroke-width="2" id="svg_1" d="m157,310.01836c0,10.59961 -8.62921,19.19042 -19.27443,19.19042l-117.45015,0c-10.64521,0 -19.27442,-8.59081 -19.27442,-19.19042l0,-290.26958c0,-10.59961 8.62921,-19.19042 19.27442,-19.19042l117.45015,0c10.64522,0 19.27443,8.59081 19.27443,19.19042l0,290.26958l0,0z"/>
    <rect stroke="null" height="238.901109" width="134.316174" y="43.661216" x="11.799809" fill="#FFFFFF" id="svg_2"/>
    <path stroke="null" id="svg_3" d="m93.39991,31.3564c0,0.762 -0.5268,1.3764 -1.176,1.3764l-24.12243,0c-0.6504,0 -1.176,-0.6156 -1.176,-1.3764l0,-3.096c0,-0.76201 0.5268,-1.37641 1.176,-1.37641l24.12243,0c0.6492,0 1.176,0.6156 1.176,1.37641l0,3.096l0,0z"/>
    <circle stroke="null" r="3.600005" cy="14.861178" cx="80.199897" id="svg_4"/>
    <ellipse stroke="null" ry="12.001216" rx="12.048016" cy="305.262754" cx="79.047896" id="svg_5"/>
   </g>
  </g>
 </g>
</svg>